<svg xmlns="http://www.w3.org/2000/svg" width="30.72" height="30.72" viewBox="0 0 30.72 30.72">
  <path id="creative-commons" d="M12.242,18.6a1.678,1.678,0,0,1-1.472-.713A3.213,3.213,0,0,1,10.27,16q0-2.6,1.972-2.6a1.74,1.74,0,0,1,.853.263,2.008,2.008,0,0,1,.775.919l1.972-1.025a4.125,4.125,0,0,0-3.916-2.128,4.159,4.159,0,0,0-3.087,1.234A4.541,4.541,0,0,0,7.614,16a4.559,4.559,0,0,0,1.209,3.366A4.3,4.3,0,0,0,12,20.574a4.309,4.309,0,0,0,2.261-.616,4.363,4.363,0,0,0,1.605-1.7l-1.816-.919A1.843,1.843,0,0,1,12.241,18.6Zm8.491,0a1.679,1.679,0,0,1-1.472-.713,3.213,3.213,0,0,1-.5-1.891q0-2.6,1.972-2.6a1.778,1.778,0,0,1,.878.263,2.019,2.019,0,0,1,.778.919l1.944-1.025a4.072,4.072,0,0,0-3.891-2.128,4.163,4.163,0,0,0-3.087,1.234A4.539,4.539,0,0,0,16.133,16a4.577,4.577,0,0,0,1.195,3.366,4.287,4.287,0,0,0,3.194,1.206,4.26,4.26,0,0,0,2.233-.616,4.531,4.531,0,0,0,1.631-1.7l-1.841-.919A1.844,1.844,0,0,1,20.732,18.6ZM26.9,5.094A14.861,14.861,0,0,0,15.98.64a14.638,14.638,0,0,0-10.8,4.454A15.025,15.025,0,0,0,.641,16,14.767,14.767,0,0,0,5.177,26.828a14.761,14.761,0,0,0,10.8,4.532,15.176,15.176,0,0,0,11-4.569A14.578,14.578,0,0,0,31.361,16,14.826,14.826,0,0,0,26.9,5.094Zm-1.923,19.7a12.327,12.327,0,0,1-8.959,3.763,12.133,12.133,0,0,1-8.881-3.726A12.06,12.06,0,0,1,3.409,16,12.25,12.25,0,0,1,7.177,7.091,11.906,11.906,0,0,1,16.019,3.4,12.036,12.036,0,0,1,24.9,7.091,12.046,12.046,0,0,1,28.593,16a11.721,11.721,0,0,1-3.614,8.794Z" transform="translate(-0.641 -0.64)" fill="#fff"/>
</svg>
