<svg xmlns="http://www.w3.org/2000/svg" width="25.213" height="25.222" viewBox="0 0 25.213 25.222">
  <path id="star" d="M17.124,15.092l-.008,0-.05.04.071.011s3.067,7.723,2.424,8.842c-1.263.957-6.692-4.234-7.4-4.92l0,.026s-6.1,6.091-7.512,5c-.846-.615,2.23-9.1,2.23-9.1l.014,0C5.773,14.336-.433,9.952.025,8.374c.014-.95,8.638-.884,8.913-.847C8.972,7.334,10.45,0,12.11,0s3.1,7.506,3.12,7.611h0l0,.008.019-.04s8.925-.137,8.939.8c.506,1.735-7.07,6.718-7.07,6.718Z" transform="translate(0.495 0.5)" fill="none" stroke="#0D9BC6" stroke-width="1"/>
</svg>
