 <svg version="1.0" xmlns="http://www.w3.org/2000/svg" width="300.000000pt" height="200.000000pt" viewBox="0 0 500.000000 200.000000" preserveAspectRatio="xMidYMid meet">
<metadata>
Created by potrace 1.12, written by Peter Selinger 2001-2015
</metadata>
<g transform="translate(0.000000,453.000000) scale(0.100000,-0.100000)" fill="#0d9bc6" stroke="none">
<path d="M571 4276 c-94 -34 -151 -121 -151 -232 0 -61 4 -77 33 -124 27 -46
43 -60 96 -87 96 -49 183 -42 267 22 43 33 94 134 94 187 0 97 -80 210 -168
236 -49 15 -127 14 -171 -2z m167 -41 c84 -36 126 -106 120 -201 -7 -115 -84
-188 -198 -188 -37 0 -69 7 -97 22 -117 61 -139 238 -41 329 54 51 145 67 216
38z"></path>
<path d="M2644 4250 c-33 -13 -82 -77 -90 -115 -15 -80 52 -171 134 -182 161
-22 238 202 100 287 -34 21 -105 26 -144 10z m116 -45 c35 -18 60 -62 60 -106
0 -22 -10 -41 -34 -65 -29 -29 -41 -34 -81 -34 -38 0 -52 5 -76 29 -24 24 -29
38 -29 76 0 40 5 52 34 81 38 38 77 44 126 19z"></path>
<path d="M5130 4201 c-110 -36 -179 -128 -180 -239 -1 -183 191 -299 357 -217
177 89 176 346 -1 437 -43 22 -136 32 -176 19z m157 -58 c66 -30 113 -109 113
-189 0 -16 -11 -53 -25 -80 -40 -81 -109 -119 -199 -112 -138 11 -224 158
-167 284 47 103 171 146 278 97z"></path>
<path d="M3605 4033 c-77 -19 -169 -43 -205 -53 -36 -11 -126 -33 -200 -49
-136 -30 -209 -49 -615 -160 -293 -80 -280 -76 -278 -92 0 -8 13 -57 27 -109
15 -52 47 -171 71 -265 25 -93 56 -213 69 -265 31 -118 142 -573 151 -620 4
-19 29 -116 56 -214 27 -98 49 -185 49 -193 0 -7 -9 -13 -19 -13 -15 0 -23 13
-36 58 -40 135 -72 262 -140 552 -65 274 -85 356 -114 461 -33 123 -139 553
-144 590 -5 29 -20 34 -66 20 -20 -6 -135 -35 -256 -65 -288 -72 -384 -97
-535 -140 -69 -20 -208 -54 -310 -76 -192 -41 -281 -63 -298 -74 -11 -6 -6
-30 42 -210 15 -54 31 -107 37 -117 9 -18 138 -513 194 -749 79 -329 95 -403
95 -442 0 -43 0 -43 -61 -71 -80 -37 -145 -101 -154 -149 -9 -47 -4 -60 26
-74 13 -6 47 -21 74 -33 152 -69 267 -184 440 -440 47 -69 94 -138 106 -153
20 -27 20 -28 2 -35 -10 -3 -41 -27 -69 -52 -104 -94 -228 -141 -374 -141
-166 0 -295 56 -409 175 -134 142 -185 315 -146 500 52 249 259 429 525 457
14 2 25 9 25 18 0 12 -13 15 -60 13 -78 -2 -173 -34 -260 -88 -319 -199 -379
-647 -124 -920 78 -83 154 -132 257 -167 69 -23 100 -28 185 -28 59 0 127 6
160 15 92 24 193 81 260 146 34 32 63 59 66 59 2 0 37 -36 78 -79 95 -103 254
-225 281 -217 14 5 21 1 25 -15 4 -16 11 -20 26 -16 33 8 34 -9 2 -35 -16 -13
-32 -37 -36 -55 -6 -28 -2 -37 23 -63 39 -39 83 -40 119 -4 22 22 24 31 18 70
l-6 44 44 0 c52 0 163 19 327 57 149 34 203 67 247 149 40 75 59 183 36 201
-15 11 -14 13 0 19 22 8 22 30 1 38 -12 5 -13 10 -6 19 6 7 9 23 5 35 -3 12 0
28 6 36 9 10 7 17 -5 27 -14 12 -14 14 2 26 17 12 17 14 0 26 -16 12 -17 16
-5 35 12 19 11 23 -5 35 -17 13 -17 14 8 30 25 17 26 17 26 -1 0 -29 57 -65
92 -58 25 5 35 1 58 -24 57 -61 170 -27 186 56 4 22 2 40 -5 47 -18 18 -13 27
24 43 48 20 68 54 69 122 1 50 -1 57 -19 60 -11 2 -47 -11 -80 -27 l-60 -31
-18 23 c-10 12 -36 60 -58 106 -45 92 -110 165 -158 174 -42 9 -112 -6 -222
-46 -53 -19 -115 -38 -138 -42 -34 -6 -48 -15 -72 -47 -25 -36 -29 -49 -29
-111 0 -97 18 -197 36 -197 8 0 14 -4 14 -10 0 -5 -7 -10 -15 -10 -16 0 -19
-17 -9 -44 3 -9 13 -12 22 -9 12 4 12 1 -3 -10 -20 -15 -20 -16 4 -41 20 -21
21 -26 8 -26 -10 0 -17 -8 -17 -20 0 -11 7 -20 15 -20 8 0 15 -7 15 -15 0 -8
-6 -12 -12 -10 -10 4 -13 -19 -14 -92 -1 -155 -42 -261 -91 -234 -31 16 -241
238 -324 341 -41 52 -99 131 -129 174 -29 43 -88 128 -131 188 -76 104 -78
109 -56 117 84 32 134 45 397 106 209 48 561 138 698 179 64 20 184 50 267 67
82 17 197 43 255 59 58 16 140 36 183 46 43 9 81 22 84 28 4 5 -18 32 -48 59
-92 83 -81 80 -207 52 -61 -13 -149 -35 -194 -49 -46 -14 -137 -36 -203 -50
-67 -14 -128 -28 -137 -31 -19 -8 -33 34 -73 220 -14 66 -48 208 -76 315 -28
107 -62 239 -74 293 -13 54 -42 164 -64 245 -22 81 -61 230 -86 332 -25 102
-53 207 -62 233 -8 27 -11 52 -7 57 5 4 54 19 109 33 213 54 261 68 298 82 21
8 104 31 185 51 81 19 275 67 431 105 156 38 285 68 286 67 6 -7 81 -291 136
-513 33 -132 70 -273 82 -312 20 -68 24 -73 50 -73 15 0 30 6 33 14 3 8 -6 52
-20 98 -46 152 -96 328 -115 406 -11 42 -32 122 -47 177 -15 55 -34 131 -43
169 -9 38 -21 70 -26 71 -6 1 -73 -13 -150 -32z m-1349 -598 c28 -116 61 -244
73 -285 57 -199 301 -1192 295 -1201 -15 -25 -724 -214 -954 -255 l-96 -16
-64 41 c-71 46 -201 111 -223 111 -24 0 -89 227 -206 720 -44 184 -102 425
-130 535 -28 110 -53 208 -55 218 -6 26 15 33 190 67 152 30 375 86 439 110
16 6 57 17 90 25 33 7 105 25 160 40 199 54 400 104 415 102 10 -2 29 -64 66
-212z m-948 -1644 c3 -8 -1 -12 -9 -9 -7 2 -15 10 -17 17 -3 8 1 12 9 9 7 -2
15 -10 17 -17z m60 -20 c3 -8 -1 -12 -9 -9 -7 2 -15 10 -17 17 -3 8 1 12 9 9
7 -2 15 -10 17 -17z m-7 -39 c49 -24 119 -78 119 -93 0 -5 -17 -17 -38 -28
-22 -11 -69 -45 -107 -75 -71 -59 -85 -65 -104 -42 -19 23 -156 76 -196 76
-24 0 -38 5 -42 16 -10 27 81 107 151 133 32 12 67 28 78 35 23 16 77 8 139
-22z m64 17 c10 -15 -1 -23 -20 -15 -9 3 -13 10 -10 16 8 13 22 13 30 -1z m53
-48 c3 -8 -1 -12 -9 -9 -7 2 -15 10 -17 17 -3 8 1 12 9 9 7 -2 15 -10 17 -17z
m56 -38 c5 -11 2 -13 -10 -9 -8 3 -18 6 -20 6 -2 0 -4 7 -4 15 0 18 26 9 34
-12z m1269 0 c4 -3 1 -16 -7 -28 -8 -12 -16 -32 -18 -46 -3 -21 -17 -29 -128
-66 -69 -23 -133 -42 -142 -43 -25 0 -23 30 5 70 17 26 33 36 72 45 28 7 84
26 125 42 87 36 85 35 93 26z m41 -14 c-3 -5 -10 -7 -15 -3 -5 3 -7 10 -3 15
3 5 10 7 15 3 5 -3 7 -10 3 -15z m83 -41 c24 -25 53 -88 53 -113 0 -11 -28
-29 -80 -53 -57 -25 -80 -40 -77 -51 4 -20 15 -18 106 15 l75 28 20 -29 c12
-16 43 -53 70 -82 28 -30 46 -58 43 -67 -11 -28 -165 -91 -198 -81 -29 9 -119
105 -119 126 0 9 -7 20 -16 23 -14 5 -14 9 -3 22 11 14 10 18 -5 29 -15 11
-15 16 -4 34 10 16 10 23 1 32 -10 10 -9 15 4 24 10 7 14 19 10 29 -6 14 -11
15 -28 6 -19 -10 -20 -17 -14 -78 3 -37 10 -96 15 -132 5 -36 11 -84 15 -108
4 -30 2 -44 -7 -46 -140 -45 -259 -78 -262 -75 -5 5 -33 209 -41 301 l-7 68
34 14 c45 20 214 66 242 66 12 0 31 6 42 14 19 14 19 15 0 29 -13 10 -15 16
-8 21 7 4 17 4 22 1 6 -3 10 -1 10 6 0 7 12 25 26 41 29 30 42 28 81 -14z
m-1346 16 c12 -14 11 -16 -5 -13 -11 2 -21 10 -24 17 -5 17 13 15 29 -4z
m1376 -10 c-9 -9 -28 6 -21 18 4 6 10 6 17 -1 6 -6 8 -13 4 -17z m-1382 -56
c102 -107 285 -351 285 -381 0 -10 -213 -121 -257 -135 -6 -2 -30 25 -52 60
-50 79 -94 136 -194 252 l-79 91 39 33 c60 53 175 132 192 132 8 0 38 -24 66
-52z m53 6 c-10 -10 -28 6 -28 24 0 15 1 15 17 -1 9 -9 14 -19 11 -23z m1357
26 c3 -5 1 -10 -4 -10 -6 0 -11 5 -11 10 0 6 2 10 4 10 3 0 8 -4 11 -10z
m-1980 -40 c3 -5 -1 -10 -10 -10 -9 0 -13 5 -10 10 3 6 8 10 10 10 2 0 7 -4
10 -10z m2005 -6 c0 -8 -4 -12 -10 -9 -5 3 -10 10 -10 16 0 5 5 9 10 9 6 0 10
-7 10 -16z m-1930 -16 c0 -6 -7 -7 -16 -4 -9 3 -18 6 -20 6 -3 0 -3 4 1 10 7
11 35 2 35 -12z m595 1 c12 -19 -5 -23 -22 -6 -16 16 -16 17 -1 17 9 0 20 -5
23 -11z m-535 -21 c0 -13 -23 -5 -28 10 -2 7 2 10 12 6 9 -3 16 -11 16 -16z
m1340 18 c0 -3 -4 -8 -10 -11 -5 -3 -10 -1 -10 4 0 6 5 11 10 11 6 0 10 -2 10
-4z m550 -27 c0 -6 -4 -7 -10 -4 -5 3 -10 11 -10 16 0 6 5 7 10 4 6 -3 10 -11
10 -16z m-1839 -15 c12 -14 11 -16 -5 -13 -11 2 -21 10 -24 17 -5 17 13 15 29
-4z m529 -9 c7 -8 8 -15 2 -15 -5 0 -15 7 -22 15 -7 8 -8 15 -2 15 5 0 15 -7
22 -15z m750 -5 c0 -5 -4 -10 -10 -10 -5 0 -10 5 -10 10 0 6 5 10 10 10 6 0
10 -4 10 -10z m580 -11 c0 -5 -4 -9 -10 -9 -5 0 -10 7 -10 16 0 8 5 12 10 9 6
-3 10 -10 10 -16z m-1810 -20 c0 -6 -4 -7 -10 -4 -5 3 -10 11 -10 16 0 6 5 7
10 4 6 -3 10 -11 10 -16z m520 -25 c0 -8 -4 -12 -10 -9 -5 3 -10 13 -10 21 0
8 5 12 10 9 6 -3 10 -13 10 -21z m1310 11 c0 -8 -2 -15 -4 -15 -2 0 -6 7 -10
15 -3 8 -1 15 4 15 6 0 10 -7 10 -15z m-1782 -23 c2 -7 -3 -12 -12 -12 -9 0
-16 7 -16 16 0 17 22 14 28 -4z m1182 8 c0 -5 -4 -10 -10 -10 -5 0 -10 5 -10
10 0 6 5 10 10 10 6 0 10 -4 10 -10z m770 -30 c0 -60 -23 -76 -68 -44 -30 21
-28 29 15 58 42 29 53 26 53 -14z m-140 -1 c0 -6 -4 -7 -10 -4 -5 3 -10 11
-10 16 0 6 5 7 10 4 6 -3 10 -11 10 -16z m-1300 -14 c10 -12 10 -15 -3 -15 -8
0 -17 7 -21 15 -3 8 -2 15 3 15 5 0 14 -7 21 -15z m-472 -14 c3 -8 -1 -12 -9
-9 -7 2 -15 10 -17 17 -3 8 1 12 9 9 7 -2 15 -10 17 -17z m1142 9 c0 -5 -4
-10 -10 -10 -5 0 -10 5 -10 10 0 6 5 10 10 10 6 0 10 -4 10 -10z m660 -10 c0
-5 -4 -10 -10 -10 -5 0 -10 5 -10 10 0 6 5 10 10 10 6 0 10 -4 10 -10z m-1761
-56 c3 -16 1 -17 -13 -5 -19 16 -21 34 -3 29 6 -3 14 -13 16 -24z m475 10 c4
-10 1 -14 -6 -12 -15 5 -23 28 -10 28 5 0 13 -7 16 -16z m1331 6 c3 -5 -1 -10
-9 -10 -9 0 -16 5 -16 10 0 6 4 10 9 10 6 0 13 -4 16 -10z m35 -20 c0 -5 -4
-10 -10 -10 -5 0 -10 5 -10 10 0 6 5 10 10 10 6 0 10 -4 10 -10z m-1796 -52
c-3 -5 -12 -4 -20 3 -7 6 -11 15 -8 21 3 5 12 4 20 -3 7 -6 11 -15 8 -21z
m470 -10 c-4 -6 -10 -5 -15 3 -14 22 -10 33 6 19 8 -7 12 -17 9 -22z m-434
-35 c0 -13 -3 -13 -15 -3 -8 7 -12 16 -9 21 8 13 24 1 24 -18z m1710 8 c0 -10
-10 -30 -21 -45 -17 -22 -28 -27 -58 -24 -55 5 -51 29 11 61 63 32 68 33 68 8z
m-1242 -19 c6 -18 -15 -14 -22 4 -4 10 -1 14 6 12 6 -2 14 -10 16 -16z m-428
-39 c0 -13 -3 -13 -15 -3 -8 7 -12 16 -9 21 8 13 24 1 24 -18z m468 -12 c3 -8
-1 -12 -9 -9 -7 2 -15 10 -17 17 -3 8 1 12 9 9 7 -2 15 -10 17 -17z m-28 -45
c19 -24 73 -90 118 -147 46 -57 108 -129 138 -160 30 -31 54 -61 54 -66 0 -6
-42 -25 -92 -43 -51 -18 -107 -41 -124 -51 l-30 -18 -150 143 c-135 129 -236
248 -222 261 12 12 245 124 258 124 8 0 31 -19 50 -43z m-402 5 c3 -8 -1 -12
-9 -9 -7 2 -15 10 -17 17 -3 8 1 12 9 9 7 -2 15 -10 17 -17z m479 -27 c-9 -10
-38 16 -31 28 4 6 13 4 22 -6 9 -8 13 -19 9 -22z m791 -104 c3 -151 -10 -206
-53 -231 -17 -10 -78 -28 -137 -41 -60 -13 -108 -26 -108 -30 0 -18 64 -15
148 5 50 13 92 21 92 17 0 -4 -11 -19 -25 -34 -25 -27 -53 -32 -145 -27 -76 5
-146 43 -134 74 3 9 11 17 16 17 6 0 8 -7 4 -15 -3 -9 0 -15 8 -15 24 0 56
117 63 227 l6 102 66 25 c206 78 195 82 199 -74z m-1230 71 c3 -8 -1 -12 -9
-9 -7 2 -15 10 -17 17 -3 8 1 12 9 9 7 -2 15 -10 17 -17z m480 -10 c3 -8 -1
-12 -9 -9 -7 2 -15 10 -17 17 -3 8 1 12 9 9 7 -2 15 -10 17 -17z m-440 -41
c10 -17 10 -20 -3 -20 -8 0 -15 2 -15 4 0 2 -3 11 -6 20 -9 23 9 20 24 -4z
m902 10 c0 -5 -4 -10 -10 -10 -5 0 -10 5 -10 10 0 6 5 10 10 10 6 0 10 -4 10
-10z m-421 -26 c3 -16 1 -17 -13 -5 -19 16 -21 34 -3 29 6 -3 14 -13 16 -24z
m41 -51 c0 -13 -3 -13 -15 -3 -8 7 -12 16 -9 21 8 13 24 1 24 -18z m-479 4
c-1 -12 -15 -9 -19 4 -3 6 1 10 8 8 6 -3 11 -8 11 -12z m859 -37 c0 -5 -4 -10
-10 -10 -5 0 -10 5 -10 10 0 6 5 10 10 10 6 0 10 -4 10 -10z m-806 -32 c-3 -5
-12 -4 -20 3 -7 6 -11 15 -8 21 3 5 12 4 20 -3 7 -6 11 -15 8 -21z m464 14 c6
-18 -15 -14 -22 4 -4 10 -1 14 6 12 6 -2 14 -10 16 -16z m42 -48 c0 -14 -3
-14 -15 -4 -8 7 -15 14 -15 16 0 2 7 4 15 4 8 0 15 -7 15 -16z m-460 -21 c0
-13 -3 -13 -15 -3 -8 7 -12 16 -9 21 8 13 24 1 24 -18z m750 17 c0 -5 -4 -10
-10 -10 -5 0 -10 5 -10 10 0 6 5 10 10 10 6 0 10 -4 10 -10z m-242 -39 c3 -8
-1 -12 -9 -9 -7 2 -15 10 -17 17 -3 8 1 12 9 9 7 -2 15 -10 17 -17z m-462 -28
c-7 -7 -26 7 -26 19 0 6 6 6 15 -2 9 -7 13 -15 11 -17z m1005 -16 c-13 -13
-26 -3 -16 12 3 6 11 8 17 5 6 -4 6 -10 -1 -17z m-490 -3 c12 -14 11 -16 -5
-13 -11 2 -21 10 -24 17 -5 17 13 15 29 -4z m-463 -23 c3 -8 -1 -12 -9 -9 -7
2 -15 10 -17 17 -3 8 1 12 9 9 7 -2 15 -10 17 -17z m520 -20 c3 -8 -1 -12 -9
-9 -7 2 -15 10 -17 17 -3 8 1 12 9 9 7 -2 15 -10 17 -17z m412 1 c0 -13 -12
-22 -22 -16 -10 6 -1 24 13 24 5 0 9 -4 9 -8z m-880 -24 c0 -13 -23 -5 -28 10
-2 7 2 10 12 6 9 -3 16 -11 16 -16z m522 -61 c48 -23 88 -45 88 -48 0 -11 -22
-17 -156 -39 -71 -12 -148 -20 -172 -17 -49 5 -137 55 -137 77 0 9 31 27 80
47 44 17 96 38 115 46 32 14 37 14 65 -5 17 -11 69 -38 117 -61z m-4 45 c2 -7
-2 -10 -12 -6 -9 3 -16 11 -16 16 0 13 23 5 28 -10z m-473 -22 c3 -5 -1 -10
-9 -10 -9 0 -16 5 -16 10 0 6 4 10 9 10 6 0 13 -4 16 -10z m540 -10 c3 -5 -1
-10 -9 -10 -8 0 -18 5 -21 10 -3 6 1 10 9 10 8 0 18 -4 21 -10z m-498 -36 c-9
-9 -28 6 -21 18 4 6 10 6 17 -1 6 -6 8 -13 4 -17z m568 16 c3 -5 -3 -10 -14
-10 -12 0 -21 5 -21 10 0 6 6 10 14 10 8 0 18 -4 21 -10z m75 0 c0 -5 -7 -10
-16 -10 -8 0 -12 5 -9 10 3 6 10 10 16 10 5 0 9 -4 9 -10z m-492 -164 c-3 -36
-6 -41 -31 -44 -36 -4 -45 20 -24 63 13 26 20 32 37 28 18 -5 21 -12 18 -47z"></path>
<path d="M1973 3478 c-24 -5 -43 -13 -43 -19 0 -12 11 -11 66 2 24 6 44 15 44
20 0 11 -10 10 -67 -3z"></path>
<path d="M1760 3423 c-54 -8 -70 -14 -70 -24 0 -11 44 -7 93 7 16 5 25 25 10
23 -5 -1 -19 -3 -33 -6z"></path>
<path d="M1447 3342 c-38 -9 -68 -20 -68 -24 1 -12 11 -11 94 8 42 9 77 21 77
26 0 11 -24 9 -103 -10z"></path>
<path d="M2012 3340 c-35 -8 -49 -17 -40 -25 8 -9 98 16 98 26 0 10 -12 10
-58 -1z"></path>
<path d="M1153 3288 c-24 -5 -43 -13 -43 -19 0 -12 7 -11 85 3 36 7 65 16 65
20 0 10 -54 8 -107 -4z"></path>
<path d="M1772 3271 c-28 -5 -44 -18 -27 -22 18 -5 105 13 105 21 0 11 -26 11
-78 1z"></path>
<path d="M1575 3228 c-63 -15 -69 -18 -59 -28 11 -11 115 12 115 25 1 14 -11
14 -56 3z"></path>
<path d="M2022 3215 c-54 -13 -69 -21 -60 -30 8 -9 129 19 129 30 1 14 -10 14
-69 0z"></path>
<path d="M1355 3181 c-25 -5 -38 -19 -20 -22 18 -3 85 14 85 22 0 10 -19 10
-65 0z"></path>
<path d="M1140 3124 c0 -13 7 -15 31 -10 17 3 38 6 45 6 8 0 14 5 14 10 0 6
-20 10 -45 10 -35 0 -45 -4 -45 -16z"></path>
<path d="M1776 3126 c-27 -6 -51 -17 -54 -23 -5 -16 -1 -16 66 0 29 7 53 17
53 22 1 14 -11 14 -65 1z"></path>
<path d="M2055 3071 c-16 -3 -29 -11 -27 -16 2 -11 2 -11 60 0 23 4 42 11 42
16 0 10 -29 10 -75 0z"></path>
<path d="M1515 3046 c-34 -10 -49 -24 -30 -27 17 -2 115 26 115 33 0 11 -37 9
-85 -6z"></path>
<path d="M1836 3000 c-33 -9 -62 -22 -64 -28 -5 -16 2 -15 71 6 50 16 68 27
55 36 -1 1 -30 -5 -62 -14z"></path>
<path d="M1313 2997 c-29 -11 -45 -27 -25 -27 19 0 72 23 72 31 0 11 -6 11
-47 -4z"></path>
<path d="M1585 2926 c-22 -7 -38 -17 -35 -22 3 -5 7 -9 10 -8 49 11 100 29
100 35 0 12 -26 10 -75 -5z"></path>
<path d="M2070 2893 c-41 -18 -24 -30 22 -14 17 6 42 11 54 11 13 0 24 5 24
10 0 15 -61 11 -100 -7z"></path>
<path d="M1405 2859 c-4 -6 -5 -12 -3 -14 7 -7 48 7 48 16 0 13 -37 11 -45 -2z"></path>
<path d="M1835 2821 c-25 -5 -38 -19 -20 -22 18 -3 85 14 85 22 0 10 -19 10
-65 0z"></path>
<path d="M1238 2813 c-10 -2 -18 -9 -18 -15 0 -6 10 -8 23 -4 12 3 25 6 30 6
4 0 7 5 7 10 0 10 -12 11 -42 3z"></path>
<path d="M2123 2768 c-32 -10 -45 -28 -22 -28 23 0 89 23 89 32 0 10 -26 9
-67 -4z"></path>
<path d="M1613 2747 c-50 -12 -60 -33 -10 -23 17 4 47 10 65 13 17 3 32 10 32
14 0 11 -32 10 -87 -4z"></path>
<path d="M1398 2678 c-25 -8 -39 -28 -22 -28 19 0 84 24 84 32 0 10 -28 9 -62
-4z"></path>
<path d="M1873 2673 c-40 -8 -26 -26 15 -19 20 3 45 6 55 6 9 0 17 5 17 10 0
10 -44 11 -87 3z"></path>
<path d="M1270 2640 c-8 -5 -12 -12 -9 -15 8 -8 39 5 39 16 0 11 -11 11 -30
-1z"></path>
<path d="M2173 2605 c-50 -21 -40 -36 12 -18 25 8 45 19 45 24 0 13 -19 11
-57 -6z"></path>
<path d="M1663 2600 c-13 -5 -23 -14 -23 -21 0 -7 7 -8 18 -4 9 3 29 9 45 12
15 3 27 9 27 14 0 11 -38 10 -67 -1z"></path>
<path d="M1471 2541 c-24 -6 -42 -31 -23 -31 20 0 72 22 72 31 0 10 -14 10
-49 0z"></path>
<path d="M1988 2533 c-10 -2 -18 -9 -18 -14 0 -14 34 -11 56 6 19 14 19 14 -1
14 -11 -1 -28 -3 -37 -6z"></path>
<path d="M1320 2490 c-8 -5 -12 -12 -9 -15 8 -8 39 5 39 16 0 11 -11 11 -30
-1z"></path>
<path d="M1793 2478 c-37 -12 -46 -34 -10 -24 12 4 34 9 50 12 30 7 37 25 10
23 -10 -1 -33 -6 -50 -11z"></path>
<path d="M2201 2446 c-25 -6 -47 -18 -49 -25 -3 -9 2 -11 14 -8 11 3 38 11 62
17 23 6 42 15 42 20 0 12 -12 11 -69 -4z"></path>
<path d="M1601 2416 c-25 -7 -47 -18 -49 -25 -3 -10 0 -12 14 -7 11 4 34 10
52 13 32 6 49 18 35 26 -5 2 -28 -1 -52 -7z"></path>
<path d="M2003 2377 c-57 -11 -71 -27 -24 -27 35 0 91 19 91 31 0 5 -3 8 -7 8
-5 -1 -32 -6 -60 -12z"></path>
<path d="M1393 2349 c-18 -5 -33 -14 -33 -19 0 -12 2 -12 56 1 24 6 44 15 44
20 0 11 -25 10 -67 -2z"></path>
<path d="M1785 2306 c-35 -10 -50 -25 -27 -26 19 -1 103 23 108 31 7 12 -33
10 -81 -5z"></path>
<path d="M2231 2301 c-19 -3 -36 -12 -39 -20 -3 -10 2 -12 19 -8 13 3 41 9 62
12 20 4 37 11 37 16 0 10 -26 10 -79 0z"></path>
<path d="M1608 2247 c-39 -11 -51 -27 -21 -27 24 0 83 23 83 32 0 10 -14 9
-62 -5z"></path>
<path d="M2023 2223 c-24 -8 -43 -19 -43 -25 0 -6 6 -8 14 -5 8 3 32 11 55 18
23 7 41 16 41 21 0 11 -18 9 -67 -9z"></path>
<path d="M1415 2179 c-4 -6 -5 -12 -3 -15 8 -7 68 8 68 17 0 13 -58 11 -65 -2z"></path>
<path d="M1828 2152 c-64 -16 -81 -39 -22 -27 51 9 84 23 84 35 0 5 -1 9 -2 9
-2 -1 -29 -8 -60 -17z"></path>
<path d="M2285 2143 c-39 -6 -58 -23 -24 -23 34 0 69 11 69 21 0 5 -3 8 -7 8
-5 -1 -21 -4 -38 -6z"></path>
<path d="M1648 2098 c-40 -11 -51 -28 -19 -28 29 0 71 18 71 30 0 11 -2 11
-52 -2z"></path>
<path d="M2088 2082 c-54 -18 -65 -37 -15 -27 50 11 77 23 77 35 0 12 -3 12
-62 -8z"></path>
<path d="M1480 2043 c-8 -2 -21 -7 -29 -9 -10 -3 -11 -8 -4 -15 11 -11 63 8
63 23 0 9 -7 9 -30 1z"></path>
<path d="M1893 2013 c-46 -16 -60 -40 -18 -29 49 12 76 26 70 36 -3 5 -7 10
-8 9 -1 0 -21 -7 -44 -16z"></path>
<path d="M2296 1991 c-16 -3 -31 -12 -34 -20 -3 -10 0 -12 11 -8 9 3 32 9 51
13 20 3 39 10 42 15 6 10 -25 10 -70 0z"></path>
<path d="M1713 1958 c-34 -11 -45 -28 -19 -28 24 0 66 19 66 30 0 12 -4 11
-47 -2z"></path>
<path d="M2090 1933 c-8 -2 -21 -7 -29 -9 -9 -3 -11 -8 -5 -14 11 -11 94 8 94
21 0 10 -35 11 -60 2z"></path>
<path d="M1523 1898 c-18 -6 -33 -15 -33 -20 0 -6 14 -7 33 -3 39 9 47 13 47
26 0 11 -4 10 -47 -3z"></path>
<path d="M1903 1877 c-28 -10 -40 -22 -30 -29 6 -5 97 26 97 33 0 12 -28 10
-67 -4z"></path>
<path d="M1718 1828 c-35 -9 -53 -28 -27 -28 23 0 89 23 89 32 0 10 -13 9 -62
-4z"></path>
<path d="M1527 1783 c-14 -14 -6 -19 23 -15 17 2 30 8 30 13 0 10 -43 12 -53
2z"></path>
<path d="M3531 3849 c-44 -9 -58 -15 -50 -24 8 -7 129 18 129 27 0 10 -19 9
-79 -3z"></path>
<path d="M3378 3794 c-3 -3 -27 -8 -52 -12 -49 -7 -65 -29 -18 -24 42 5 92 23
92 33 0 10 -14 12 -22 3z"></path>
<path d="M3578 3732 c-45 -15 -64 -32 -35 -32 24 0 107 32 107 41 0 12 -16 10
-72 -9z"></path>
<path d="M3068 3722 c-58 -16 -76 -32 -37 -32 33 0 129 30 129 41 0 12 -23 10
-92 -9z"></path>
<path d="M2825 3676 c-42 -9 -56 -19 -42 -28 7 -4 137 27 137 34 0 11 -34 9
-95 -6z"></path>
<path d="M3330 3662 c-47 -15 -59 -24 -47 -34 5 -6 127 36 127 44 0 11 -17 9
-80 -10z"></path>
<path d="M2617 3614 c-4 -4 -5 -10 -2 -14 6 -9 65 0 65 11 0 10 -53 12 -63 3z"></path>
<path d="M3581 3606 c-30 -7 -57 -18 -59 -25 -3 -9 2 -11 14 -8 11 3 47 11 82
18 34 6 62 16 62 20 0 11 -30 10 -99 -5z"></path>
<path d="M3083 3590 c-33 -13 -30 -32 3 -20 14 6 36 10 50 10 13 0 24 5 24 10
0 12 -47 12 -77 0z"></path>
<path d="M2863 3540 c-36 -15 -27 -29 15 -24 53 8 64 12 57 24 -7 12 -42 12
-72 0z"></path>
<path d="M3333 3517 c-24 -5 -43 -14 -43 -18 0 -12 9 -11 69 3 28 6 51 15 51
20 0 10 -22 9 -77 -5z"></path>
<path d="M2675 3488 c-16 -5 -36 -11 -43 -14 -7 -2 -11 -8 -7 -13 6 -11 95 17
95 30 0 11 -6 10 -45 -3z"></path>
<path d="M3672 3490 c-35 -8 -49 -17 -40 -25 8 -9 98 16 98 26 0 10 -12 10
-58 -1z"></path>
<path d="M3093 3458 c-31 -10 -45 -28 -23 -28 23 0 100 25 100 32 0 11 -37 8
-77 -4z"></path>
<path d="M3495 3435 c-5 -2 -27 -6 -47 -10 -21 -3 -38 -11 -38 -17 0 -6 13 -8
38 -4 55 10 72 16 72 27 0 9 -7 10 -25 4z"></path>
<path d="M2851 3391 c-44 -10 -76 -22 -79 -30 -3 -10 0 -12 12 -8 9 4 45 12
81 18 60 10 86 22 68 31 -5 3 -41 -3 -82 -11z"></path>
<path d="M3228 3368 c-21 -6 -38 -14 -38 -19 0 -11 2 -11 56 2 24 6 44 15 44
20 0 11 -13 10 -62 -3z"></path>
<path d="M3698 3363 c-16 -2 -28 -9 -28 -15 0 -6 12 -8 31 -4 17 3 35 6 40 6
5 0 9 5 9 10 0 10 -3 10 -52 3z"></path>
<path d="M2670 3320 c0 -5 4 -10 9 -10 6 0 13 5 16 10 3 6 -1 10 -9 10 -9 0
-16 -4 -16 -10z"></path>
<path d="M3493 3313 c-29 -2 -53 -8 -53 -14 0 -15 86 -11 100 6 7 8 11 14 9
13 -2 -1 -28 -3 -56 -5z"></path>
<path d="M3025 3301 c-3 -5 -1 -12 4 -15 13 -8 71 5 71 15 0 12 -67 11 -75 0z"></path>
<path d="M3268 3253 c-16 -2 -28 -9 -28 -15 0 -13 80 -2 95 13 9 9 -14 10 -67
2z"></path>
<path d="M3738 3228 c-37 -10 -52 -28 -23 -28 20 0 65 22 65 32 0 4 -1 8 -2 7
-2 -1 -20 -6 -40 -11z"></path>
<path d="M2733 3219 c-34 -10 -54 -29 -30 -29 24 0 77 21 77 31 0 11 -4 10
-47 -2z"></path>
<path d="M3475 3206 c-181 -52 -284 -88 -297 -103 -11 -15 -11 -16 7 -9 56 23
335 106 370 111 34 5 50 0 109 -35 68 -40 93 -49 81 -30 -11 17 -149 90 -170
89 -11 0 -56 -11 -100 -23z"></path>
<path d="M3065 3186 c-48 -15 -88 -36 -82 -42 7 -7 157 39 157 48 0 11 -28 9
-75 -6z"></path>
<path d="M4171 3175 c-118 -23 -153 -36 -138 -52 4 -4 58 3 121 15 167 33 216
28 216 -19 0 -34 -47 -56 -167 -78 -123 -24 -161 -37 -146 -52 8 -8 65 0 236
34 107 21 155 112 83 156 -41 25 -49 25 -205 -4z"></path>
<path d="M2810 3108 c-40 -11 -63 -28 -38 -28 31 0 118 23 118 32 0 10 -36 9
-80 -4z"></path>
<path d="M3855 3113 c-22 -3 -44 -8 -48 -13 -6 -6 17 -142 27 -156 5 -8 131
25 134 35 4 11 -6 13 -51 7 -63 -7 -74 2 -79 65 -2 27 1 34 17 37 49 8 65 13
65 22 0 6 -6 9 -12 8 -7 -1 -31 -3 -53 -5z"></path>
<path d="M6055 3084 c-23 -22 -27 -31 -22 -62 12 -71 93 -97 144 -46 21 21 24
32 19 62 -11 71 -87 96 -141 46z m92 -40 c8 -22 -10 -49 -32 -49 -10 0 -22 7
-28 16 -15 24 -1 49 28 49 15 0 28 -7 32 -16z"></path>
<path d="M3695 3085 c-5 -1 -55 -10 -110 -20 -113 -19 -336 -73 -348 -84 -4
-4 -1 -27 8 -50 8 -24 15 -51 15 -61 0 -35 22 -38 115 -18 50 10 117 26 150
34 33 8 103 22 155 30 52 9 99 20 103 24 5 4 0 39 -10 76 -17 60 -23 69 -44
71 -13 1 -28 0 -34 -2z m36 -62 c18 -47 9 -56 -66 -69 -39 -6 -127 -26 -197
-44 -70 -17 -137 -30 -149 -28 -31 4 -49 56 -25 74 19 13 101 33 286 70 147
28 139 29 151 -3z"></path>
<path d="M3102 3069 c-35 -14 -18 -29 21 -18 17 5 33 9 34 9 2 0 3 5 3 10 0
12 -27 12 -58 -1z"></path>
<path d="M2953 3007 c-40 -12 -45 -32 -5 -22 27 6 49 22 41 28 -2 2 -19 -1
-36 -6z"></path>
<path d="M3086 2993 c-9 -18 -12 -33 -7 -33 13 0 33 38 28 53 -2 7 -11 -3 -21
-20z"></path>
<path d="M4008 2973 c-10 -2 -18 -12 -18 -21 1 -21 78 -108 87 -98 9 9 -30
119 -42 122 -6 1 -18 0 -27 -3z"></path>
<path d="M2803 2963 c-25 -5 -32 -23 -9 -23 22 0 46 11 46 21 0 5 -3 8 -7 8
-5 -1 -18 -4 -30 -6z"></path>
<path d="M3143 2953 c-23 -9 -14 -25 10 -18 31 10 45 25 22 24 -11 0 -26 -3
-32 -6z"></path>
<path d="M3022 2903 c-20 -4 -102 -74 -102 -87 0 -2 13 -3 30 -2 18 1 36 10
45 24 9 12 27 22 40 22 13 0 26 4 29 9 7 11 -3 42 -13 40 -3 -1 -16 -4 -29 -6z"></path>
<path d="M2853 2869 c-49 -14 -55 -33 -7 -24 45 8 54 12 54 26 0 11 -4 10 -47
-2z"></path>
<path d="M3138 2797 c29 -31 58 -70 64 -87 7 -22 29 -42 79 -71 75 -45 209
-103 217 -94 9 8 8 186 -1 238 -5 26 -13 47 -19 47 -6 0 -8 -11 -4 -27 3 -16
9 -66 12 -113 6 -73 4 -87 -10 -99 -23 -19 -70 -4 -163 51 -57 35 -80 56 -115
108 -24 36 -58 73 -78 84 -33 19 -32 17 18 -37z"></path>
<path d="M2960 2763 c0 -56 41 -217 64 -257 13 -23 50 -66 82 -96 72 -68 317
-234 335 -228 9 3 6 9 -11 18 -59 32 -287 198 -330 241 -64 64 -87 116 -108
243 -16 100 -32 140 -32 79z"></path>
<path d="M134 2700 c-29 -11 -54 -49 -54 -78 0 -32 52 -82 85 -82 16 0 38 12
57 30 25 26 29 36 24 63 -11 55 -64 87 -112 67z m56 -55 c20 -25 8 -50 -25
-50 -21 0 -31 5 -33 18 -4 21 14 47 33 47 7 0 18 -7 25 -15z"></path>
<path d="M4499 2446 c-133 -47 -217 -160 -226 -304 -5 -76 -4 -79 41 -170 25
-51 46 -98 46 -103 0 -21 -77 -92 -134 -124 -69 -39 -176 -74 -251 -84 -45 -6
-50 -9 -47 -30 1 -13 -5 -32 -13 -41 -14 -15 -14 -24 2 -89 17 -71 33 -93 33
-46 0 14 -7 42 -15 62 -18 43 -12 53 41 58 21 2 55 9 74 15 49 14 49 14 43
-24 -7 -46 21 -102 69 -133 21 -14 38 -27 38 -28 0 -2 -16 -19 -35 -38 -23
-23 -36 -47 -41 -76 -6 -40 -17 -51 -29 -31 -4 6 -24 22 -46 35 -51 33 -58 62
-25 118 32 55 35 116 6 142 -25 23 -36 14 -20 -16 23 -42 -13 -148 -46 -135
-17 7 -17 -1 -3 -62 14 -58 25 -72 53 -72 31 0 76 -50 83 -93 4 -25 -1 -48
-17 -80 -13 -25 -20 -54 -17 -64 3 -10 17 -58 31 -108 15 -49 33 -103 40 -120
8 -16 26 -65 41 -108 l26 -78 -25 -51 c-32 -64 -33 -110 -3 -168 48 -96 178
-109 256 -26 22 23 23 29 11 51 -11 20 -10 28 4 49 42 66 118 73 168 16 15
-16 38 -30 50 -30 12 0 65 21 118 46 81 40 108 60 183 135 48 48 87 95 87 103
0 18 -25 22 -35 6 -9 -14 -88 -12 -108 3 -9 6 -19 26 -23 43 -4 24 0 37 21 62
15 18 35 32 46 32 10 0 19 5 19 10 0 17 -132 270 -141 270 -4 0 -11 -4 -14
-10 -3 -5 -25 -10 -49 -10 -55 0 -86 30 -86 84 0 43 14 74 44 98 l21 17 -67
128 -66 128 -52 5 c-68 7 -94 36 -87 94 9 62 24 71 130 72 148 1 233 53 298
181 31 62 34 74 34 157 0 82 -3 97 -33 158 -59 122 -166 188 -300 188 -37 -1
-83 -7 -103 -14z m237 -59 c104 -53 157 -145 158 -272 0 -67 -4 -89 -27 -137
-53 -109 -142 -162 -275 -163 -79 -1 -84 -3 -114 -32 -24 -24 -32 -42 -35 -80
-5 -42 -2 -53 22 -81 17 -20 44 -37 73 -45 66 -20 64 -35 -3 -33 -52 1 -59 -2
-85 -31 -33 -36 -54 -103 -44 -136 18 -60 81 -107 141 -107 41 0 87 32 107 75
12 24 21 34 27 28 7 -7 3 -22 -10 -44 -61 -107 -17 -209 89 -209 27 0 52 -6
59 -13 16 -20 91 -165 91 -177 0 -6 -13 -29 -30 -52 -16 -22 -30 -52 -30 -65
0 -38 27 -81 63 -99 17 -9 34 -18 35 -19 8 -7 -42 -65 -55 -65 -7 0 -13 10
-13 23 0 51 -60 97 -127 97 -66 0 -113 -52 -113 -125 0 -27 8 -44 30 -67 17
-16 30 -34 30 -39 0 -18 -50 -9 -86 16 -65 44 -167 24 -196 -40 -16 -35 -25
-31 -33 12 -14 76 -47 113 -116 130 -30 8 -36 16 -57 72 -12 35 -20 67 -16 72
3 5 17 9 30 9 15 0 38 12 55 29 26 26 29 36 29 91 0 57 -3 65 -34 96 -37 37
-78 44 -132 24 -42 -16 -51 1 -31 57 9 27 17 63 17 81 0 19 3 32 8 30 113 -58
153 -59 209 -3 29 29 33 40 33 83 0 40 -6 57 -26 81 -14 17 -32 31 -40 31 -21
0 -18 7 30 53 47 45 73 107 62 150 -10 40 -55 87 -82 87 -32 0 -30 -5 11 -41
58 -51 56 -93 -5 -163 -27 -30 -38 -36 -74 -36 -79 0 -140 63 -134 137 3 41 6
42 106 80 70 27 193 109 215 145 13 19 -15 81 -47 103 -18 13 -57 96 -78 165
-14 48 -2 132 27 189 29 58 101 124 158 145 63 23 169 16 233 -17z m-131 -907
c33 -31 38 -51 25 -99 -14 -55 -53 -84 -100 -76 -85 16 -117 102 -64 173 25
32 30 34 71 29 27 -3 54 -14 68 -27z m-274 -136 c30 -27 25 -91 -8 -126 -39
-40 -103 -40 -144 1 -16 16 -29 37 -29 46 0 27 27 82 47 94 25 16 111 6 134
-15z m-82 -360 c27 -22 31 -32 31 -75 0 -60 -24 -89 -74 -89 -73 0 -116 112
-64 167 28 30 69 29 107 -3z m570 -285 c31 -19 33 -23 28 -60 -9 -70 -57 -100
-123 -79 -56 19 -70 69 -34 128 17 27 26 32 57 32 21 0 53 -9 72 -21z m-521
-109 c39 -24 54 -59 50 -119 l-3 -46 -41 -3 c-54 -4 -59 4 -91 135 -13 54 26
69 85 33z m102 -169 c0 -30 -47 -61 -91 -61 -26 0 -47 8 -66 25 -15 13 -22 25
-15 25 6 0 12 -4 12 -10 0 -5 25 -10 55 -10 46 0 57 4 72 25 22 30 33 32 33 6z"></path>
<path d="M4384 1197 c-35 -32 -38 -39 -42 -99 -4 -57 -1 -67 22 -95 33 -39
103 -59 152 -43 70 23 110 113 81 181 -24 56 -60 82 -121 87 -50 4 -56 2 -92
-31z m163 -32 c33 -38 32 -103 -4 -145 -25 -30 -30 -32 -81 -28 -65 6 -92 31
-92 84 0 44 23 99 47 113 31 20 104 6 130 -24z"></path>
<path d="M4674 1056 c-45 -20 -64 -52 -64 -109 0 -59 11 -82 50 -102 37 -19
73 -19 110 0 43 22 60 53 60 110 0 56 -19 84 -73 104 -36 14 -45 13 -83 -3z
m104 -42 c17 -12 22 -25 22 -59 0 -36 -5 -48 -31 -69 -37 -32 -75 -33 -106 -4
-31 29 -32 92 -1 125 26 27 82 31 116 7z"></path>
<path d="M4374 834 c-29 -31 -34 -42 -34 -86 0 -43 4 -54 33 -83 40 -40 77
-51 125 -39 44 11 73 49 79 106 10 83 -41 138 -128 138 -35 0 -47 -6 -75 -36z
m148 -24 c26 -26 30 -36 25 -67 -10 -61 -31 -83 -81 -83 -88 0 -126 82 -70
149 36 43 84 43 126 1z"></path>
<path d="M6360 1766 c-27 -33 18 -72 48 -42 13 13 14 20 6 34 -15 23 -38 26
-54 8z"></path>
<path d="M4530 1718 c0 -19 40 -81 47 -74 8 8 -27 86 -39 86 -4 0 -8 -6 -8
-12z"></path>
<path d="M4740 1315 c0 -15 62 -125 70 -125 6 0 10 2 10 5 0 15 -62 125 -70
125 -6 0 -10 -2 -10 -5z"></path>
<path d="M4000 1227 c0 -25 32 -107 42 -107 12 0 1 54 -18 93 -16 29 -24 34
-24 14z"></path>
<path d="M4970 865 c0 -15 42 -85 50 -85 14 0 13 5 -10 50 -17 34 -40 53 -40
35z"></path>
<path d="M4520 453 c-39 -7 -49 -23 -14 -23 47 0 104 12 104 21 0 9 -45 10
-90 2z"></path>
<path d="M7 303 c-4 -3 -7 -15 -7 -25 0 -16 5 -19 28 -13 21 4 33 1 46 -14 25
-28 6 -51 -40 -51 -27 0 -34 -4 -34 -19 0 -38 69 -42 105 -6 51 50 15 135 -58
135 -18 0 -37 -3 -40 -7z"></path>
<path d="M6073 224 c-15 -39 38 -67 60 -32 8 12 7 21 -2 32 -17 21 -50 20 -58
0z"></path>
</g>
</svg>